<mxfile host="app.diagrams.net" agent="Mozilla/5.0 (Windows NT 10.0; Win64; x64) AppleWebKit/537.36 (KHTML, like Gecko) Chrome/131.0.0.0 Safari/537.36 Edg/131.0.0.0" version="25.0.1">
  <diagram name="第 1 页" id="fENqRYdDaFFYO5DENeBi">
    <mxGraphModel dx="2787" dy="2048" grid="1" gridSize="10" guides="1" tooltips="1" connect="1" arrows="1" fold="1" page="1" pageScale="1" pageWidth="827" pageHeight="1169" math="0" shadow="0">
      <root>
        <mxCell id="0" />
        <mxCell id="1" parent="0" />
        <mxCell id="cYfbSXkqEOTIwd2G9jif-3" value="" style="edgeStyle=orthogonalEdgeStyle;rounded=0;orthogonalLoop=1;jettySize=auto;html=1;" edge="1" parent="1" source="cYfbSXkqEOTIwd2G9jif-1" target="cYfbSXkqEOTIwd2G9jif-2">
          <mxGeometry relative="1" as="geometry" />
        </mxCell>
        <mxCell id="cYfbSXkqEOTIwd2G9jif-1" value="UO&lt;div&gt;生单占座&lt;/div&gt;" style="rounded=1;whiteSpace=wrap;html=1;" vertex="1" parent="1">
          <mxGeometry x="-20" y="140" width="120" height="60" as="geometry" />
        </mxCell>
        <mxCell id="cYfbSXkqEOTIwd2G9jif-9" value="" style="edgeStyle=orthogonalEdgeStyle;rounded=0;orthogonalLoop=1;jettySize=auto;html=1;" edge="1" parent="1" source="cYfbSXkqEOTIwd2G9jif-2" target="cYfbSXkqEOTIwd2G9jif-8">
          <mxGeometry relative="1" as="geometry" />
        </mxCell>
        <mxCell id="cYfbSXkqEOTIwd2G9jif-11" value="滞留" style="edgeLabel;html=1;align=center;verticalAlign=middle;resizable=0;points=[];" vertex="1" connectable="0" parent="cYfbSXkqEOTIwd2G9jif-9">
          <mxGeometry x="-0.4375" relative="1" as="geometry">
            <mxPoint as="offset" />
          </mxGeometry>
        </mxCell>
        <mxCell id="cYfbSXkqEOTIwd2G9jif-55" style="edgeStyle=orthogonalEdgeStyle;rounded=0;orthogonalLoop=1;jettySize=auto;html=1;entryX=0.5;entryY=0;entryDx=0;entryDy=0;" edge="1" parent="1" source="cYfbSXkqEOTIwd2G9jif-2" target="cYfbSXkqEOTIwd2G9jif-52">
          <mxGeometry relative="1" as="geometry" />
        </mxCell>
        <mxCell id="cYfbSXkqEOTIwd2G9jif-56" value="非滞留" style="edgeLabel;html=1;align=center;verticalAlign=middle;resizable=0;points=[];" vertex="1" connectable="0" parent="cYfbSXkqEOTIwd2G9jif-55">
          <mxGeometry x="0.2125" y="-2" relative="1" as="geometry">
            <mxPoint as="offset" />
          </mxGeometry>
        </mxCell>
        <mxCell id="cYfbSXkqEOTIwd2G9jif-2" value="滞留/非滞留" style="rhombus;whiteSpace=wrap;html=1;rounded=1;" vertex="1" parent="1">
          <mxGeometry y="270" width="80" height="80" as="geometry" />
        </mxCell>
        <mxCell id="cYfbSXkqEOTIwd2G9jif-6" value="发自动支付任务" style="whiteSpace=wrap;html=1;rounded=1;" vertex="1" parent="1">
          <mxGeometry x="-190" y="680" width="120" height="60" as="geometry" />
        </mxCell>
        <mxCell id="cYfbSXkqEOTIwd2G9jif-8" value="发B2B占座" style="whiteSpace=wrap;html=1;rounded=1;" vertex="1" parent="1">
          <mxGeometry x="90" y="400" width="120" height="60" as="geometry" />
        </mxCell>
        <mxCell id="cYfbSXkqEOTIwd2G9jif-14" value="" style="edgeStyle=orthogonalEdgeStyle;rounded=0;orthogonalLoop=1;jettySize=auto;html=1;" edge="1" parent="1" source="cYfbSXkqEOTIwd2G9jif-12" target="cYfbSXkqEOTIwd2G9jif-13">
          <mxGeometry relative="1" as="geometry" />
        </mxCell>
        <mxCell id="cYfbSXkqEOTIwd2G9jif-12" value="延续" style="rounded=1;whiteSpace=wrap;html=1;" vertex="1" parent="1">
          <mxGeometry x="290" y="140" width="120" height="60" as="geometry" />
        </mxCell>
        <mxCell id="cYfbSXkqEOTIwd2G9jif-41" value="" style="edgeStyle=orthogonalEdgeStyle;rounded=0;orthogonalLoop=1;jettySize=auto;html=1;" edge="1" parent="1" source="cYfbSXkqEOTIwd2G9jif-13" target="cYfbSXkqEOTIwd2G9jif-40">
          <mxGeometry relative="1" as="geometry" />
        </mxCell>
        <mxCell id="cYfbSXkqEOTIwd2G9jif-13" value="发B2B占座" style="rounded=1;whiteSpace=wrap;html=1;" vertex="1" parent="1">
          <mxGeometry x="290" y="280" width="120" height="60" as="geometry" />
        </mxCell>
        <mxCell id="cYfbSXkqEOTIwd2G9jif-17" value="" style="edgeStyle=orthogonalEdgeStyle;rounded=0;orthogonalLoop=1;jettySize=auto;html=1;" edge="1" parent="1" source="cYfbSXkqEOTIwd2G9jif-15" target="cYfbSXkqEOTIwd2G9jif-66">
          <mxGeometry relative="1" as="geometry">
            <mxPoint x="570" y="280" as="targetPoint" />
          </mxGeometry>
        </mxCell>
        <mxCell id="cYfbSXkqEOTIwd2G9jif-15" value="低舱" style="rounded=1;whiteSpace=wrap;html=1;" vertex="1" parent="1">
          <mxGeometry x="560" y="140" width="120" height="60" as="geometry" />
        </mxCell>
        <mxCell id="cYfbSXkqEOTIwd2G9jif-22" value="" style="edgeStyle=orthogonalEdgeStyle;rounded=0;orthogonalLoop=1;jettySize=auto;html=1;" edge="1" parent="1" source="cYfbSXkqEOTIwd2G9jif-20" target="cYfbSXkqEOTIwd2G9jif-21">
          <mxGeometry relative="1" as="geometry" />
        </mxCell>
        <mxCell id="cYfbSXkqEOTIwd2G9jif-20" value="占座后支付" style="rounded=1;whiteSpace=wrap;html=1;" vertex="1" parent="1">
          <mxGeometry x="910" y="170" width="120" height="60" as="geometry" />
        </mxCell>
        <mxCell id="cYfbSXkqEOTIwd2G9jif-24" value="" style="edgeStyle=orthogonalEdgeStyle;rounded=0;orthogonalLoop=1;jettySize=auto;html=1;" edge="1" parent="1" source="cYfbSXkqEOTIwd2G9jif-21" target="cYfbSXkqEOTIwd2G9jif-23">
          <mxGeometry relative="1" as="geometry" />
        </mxCell>
        <mxCell id="cYfbSXkqEOTIwd2G9jif-25" value="API" style="edgeLabel;html=1;align=center;verticalAlign=middle;resizable=0;points=[];" vertex="1" connectable="0" parent="cYfbSXkqEOTIwd2G9jif-24">
          <mxGeometry x="-0.2444" y="1" relative="1" as="geometry">
            <mxPoint x="24" y="-1" as="offset" />
          </mxGeometry>
        </mxCell>
        <mxCell id="cYfbSXkqEOTIwd2G9jif-31" value="" style="edgeStyle=orthogonalEdgeStyle;rounded=0;orthogonalLoop=1;jettySize=auto;html=1;" edge="1" parent="1" source="cYfbSXkqEOTIwd2G9jif-21" target="cYfbSXkqEOTIwd2G9jif-30">
          <mxGeometry relative="1" as="geometry" />
        </mxCell>
        <mxCell id="cYfbSXkqEOTIwd2G9jif-45" value="B2B" style="edgeLabel;html=1;align=center;verticalAlign=middle;resizable=0;points=[];" vertex="1" connectable="0" parent="cYfbSXkqEOTIwd2G9jif-31">
          <mxGeometry x="-0.4125" relative="1" as="geometry">
            <mxPoint as="offset" />
          </mxGeometry>
        </mxCell>
        <mxCell id="cYfbSXkqEOTIwd2G9jif-21" value="根据账号判断" style="rhombus;whiteSpace=wrap;html=1;rounded=1;" vertex="1" parent="1">
          <mxGeometry x="930" y="300" width="80" height="80" as="geometry" />
        </mxCell>
        <mxCell id="cYfbSXkqEOTIwd2G9jif-23" value="发起API额度支付" style="whiteSpace=wrap;html=1;rounded=1;" vertex="1" parent="1">
          <mxGeometry x="800" y="440" width="120" height="60" as="geometry" />
        </mxCell>
        <mxCell id="cYfbSXkqEOTIwd2G9jif-35" value="" style="edgeStyle=orthogonalEdgeStyle;rounded=0;orthogonalLoop=1;jettySize=auto;html=1;fillColor=#f8cecc;strokeColor=#b85450;" edge="1" parent="1" source="cYfbSXkqEOTIwd2G9jif-30" target="cYfbSXkqEOTIwd2G9jif-34">
          <mxGeometry relative="1" as="geometry" />
        </mxCell>
        <mxCell id="cYfbSXkqEOTIwd2G9jif-36" value="HKD/MYR" style="edgeLabel;html=1;align=center;verticalAlign=middle;resizable=0;points=[];" vertex="1" connectable="0" parent="cYfbSXkqEOTIwd2G9jif-35">
          <mxGeometry x="0.16" y="-1" relative="1" as="geometry">
            <mxPoint as="offset" />
          </mxGeometry>
        </mxCell>
        <mxCell id="cYfbSXkqEOTIwd2G9jif-38" value="" style="edgeStyle=orthogonalEdgeStyle;rounded=0;orthogonalLoop=1;jettySize=auto;html=1;" edge="1" parent="1" source="cYfbSXkqEOTIwd2G9jif-30" target="cYfbSXkqEOTIwd2G9jif-37">
          <mxGeometry relative="1" as="geometry" />
        </mxCell>
        <mxCell id="cYfbSXkqEOTIwd2G9jif-39" value="其他币种" style="edgeLabel;html=1;align=center;verticalAlign=middle;resizable=0;points=[];" vertex="1" connectable="0" parent="cYfbSXkqEOTIwd2G9jif-38">
          <mxGeometry x="0.2182" y="1" relative="1" as="geometry">
            <mxPoint as="offset" />
          </mxGeometry>
        </mxCell>
        <mxCell id="cYfbSXkqEOTIwd2G9jif-30" value="判断币种" style="rhombus;whiteSpace=wrap;html=1;rounded=1;" vertex="1" parent="1">
          <mxGeometry x="1040" y="430" width="80" height="80" as="geometry" />
        </mxCell>
        <mxCell id="cYfbSXkqEOTIwd2G9jif-34" value="虚拟卡支付" style="whiteSpace=wrap;html=1;rounded=1;fillColor=#f8cecc;strokeColor=#b85450;" vertex="1" parent="1">
          <mxGeometry x="910" y="600" width="120" height="60" as="geometry" />
        </mxCell>
        <mxCell id="cYfbSXkqEOTIwd2G9jif-37" value="B2B额度支付" style="whiteSpace=wrap;html=1;rounded=1;" vertex="1" parent="1">
          <mxGeometry x="1150" y="600" width="120" height="60" as="geometry" />
        </mxCell>
        <mxCell id="cYfbSXkqEOTIwd2G9jif-43" value="" style="edgeStyle=orthogonalEdgeStyle;rounded=0;orthogonalLoop=1;jettySize=auto;html=1;" edge="1" parent="1" source="cYfbSXkqEOTIwd2G9jif-40" target="cYfbSXkqEOTIwd2G9jif-42">
          <mxGeometry relative="1" as="geometry" />
        </mxCell>
        <mxCell id="cYfbSXkqEOTIwd2G9jif-44" value="延续失败" style="edgeLabel;html=1;align=center;verticalAlign=middle;resizable=0;points=[];" vertex="1" connectable="0" parent="cYfbSXkqEOTIwd2G9jif-43">
          <mxGeometry x="-0.2727" y="1" relative="1" as="geometry">
            <mxPoint as="offset" />
          </mxGeometry>
        </mxCell>
        <mxCell id="cYfbSXkqEOTIwd2G9jif-40" value="延续结果" style="rhombus;whiteSpace=wrap;html=1;rounded=1;" vertex="1" parent="1">
          <mxGeometry x="310" y="410" width="80" height="80" as="geometry" />
        </mxCell>
        <mxCell id="cYfbSXkqEOTIwd2G9jif-42" value="发起自动支付" style="whiteSpace=wrap;html=1;rounded=1;" vertex="1" parent="1">
          <mxGeometry x="290" y="545" width="120" height="60" as="geometry" />
        </mxCell>
        <mxCell id="cYfbSXkqEOTIwd2G9jif-46" value="&lt;h1 style=&quot;margin-top: 0px;&quot;&gt;1、占座任务，确认哪个字段区分b2b,api&lt;/h1&gt;&lt;h1 style=&quot;margin-top: 0px;&quot;&gt;2、占座后支付任务，确认哪个字段区分b2b,api;确认哪个字段区分额度支付、虚拟卡支付&lt;/h1&gt;&lt;div&gt;&lt;br&gt;&lt;/div&gt;" style="text;html=1;whiteSpace=wrap;overflow=hidden;rounded=0;" vertex="1" parent="1">
          <mxGeometry x="30" y="960" width="530" height="320" as="geometry" />
        </mxCell>
        <mxCell id="cYfbSXkqEOTIwd2G9jif-47" value="&lt;h1 style=&quot;margin-top: 0px;&quot;&gt;&lt;font style=&quot;font-size: 8px;&quot;&gt;&lt;br&gt;&lt;/font&gt;&lt;/h1&gt;&lt;h1 style=&quot;margin-top: 0px;&quot;&gt;&lt;font size=&quot;3&quot;&gt;&lt;font style=&quot;font-weight: normal;&quot;&gt;1、API使用场景：&lt;/font&gt;&lt;/font&gt;&lt;/h1&gt;&lt;h1 style=&quot;margin-top: 0px;&quot;&gt;&lt;font size=&quot;3&quot;&gt;&lt;span style=&quot;background-color: initial; font-weight: normal;&quot;&gt;非滞留、非HKD、MYR;&lt;/span&gt;&lt;/font&gt;&lt;/h1&gt;&lt;h1 style=&quot;margin-top: 0px;&quot;&gt;&lt;font size=&quot;3&quot;&gt;&lt;span style=&quot;background-color: initial; font-weight: normal;&quot;&gt;刷低舱成功&lt;/span&gt;&lt;span style=&quot;background-color: initial; font-weight: normal;&quot;&gt;、非HKD、MYR;&lt;/span&gt;&lt;/font&gt;&lt;/h1&gt;&lt;h1 style=&quot;margin-top: 0px;&quot;&gt;&lt;span style=&quot;background-color: initial; font-weight: normal;&quot;&gt;&lt;font size=&quot;3&quot;&gt;2、B2B使用场景：&lt;/font&gt;&lt;/span&gt;&lt;/h1&gt;&lt;h1 style=&quot;margin-top: 0px;&quot;&gt;&lt;span style=&quot;background-color: initial; font-weight: normal;&quot;&gt;&lt;font size=&quot;3&quot;&gt;虚拟卡：HKD、MYR;&lt;/font&gt;&lt;/span&gt;&lt;/h1&gt;&lt;h1 style=&quot;margin-top: 0px;&quot;&gt;&lt;span style=&quot;background-color: initial; font-weight: normal;&quot;&gt;&lt;font size=&quot;3&quot;&gt;额度：延续失败、刷低舱失败&lt;/font&gt;&lt;/span&gt;&lt;/h1&gt;" style="text;html=1;whiteSpace=wrap;overflow=hidden;rounded=0;" vertex="1" parent="1">
          <mxGeometry x="-340" y="-40" width="260" height="320" as="geometry" />
        </mxCell>
        <mxCell id="cYfbSXkqEOTIwd2G9jif-48" value="" style="edgeStyle=orthogonalEdgeStyle;rounded=0;orthogonalLoop=1;jettySize=auto;html=1;fillColor=#f8cecc;strokeColor=#b85450;" edge="1" parent="1" source="cYfbSXkqEOTIwd2G9jif-52" target="cYfbSXkqEOTIwd2G9jif-53">
          <mxGeometry relative="1" as="geometry" />
        </mxCell>
        <mxCell id="cYfbSXkqEOTIwd2G9jif-49" value="HKD/MYR" style="edgeLabel;html=1;align=center;verticalAlign=middle;resizable=0;points=[];" vertex="1" connectable="0" parent="cYfbSXkqEOTIwd2G9jif-48">
          <mxGeometry x="0.16" y="-1" relative="1" as="geometry">
            <mxPoint as="offset" />
          </mxGeometry>
        </mxCell>
        <mxCell id="cYfbSXkqEOTIwd2G9jif-50" value="" style="edgeStyle=orthogonalEdgeStyle;rounded=0;orthogonalLoop=1;jettySize=auto;html=1;" edge="1" parent="1" source="cYfbSXkqEOTIwd2G9jif-52" target="cYfbSXkqEOTIwd2G9jif-54">
          <mxGeometry relative="1" as="geometry" />
        </mxCell>
        <mxCell id="cYfbSXkqEOTIwd2G9jif-51" value="其他币种" style="edgeLabel;html=1;align=center;verticalAlign=middle;resizable=0;points=[];" vertex="1" connectable="0" parent="cYfbSXkqEOTIwd2G9jif-50">
          <mxGeometry x="0.2182" y="1" relative="1" as="geometry">
            <mxPoint as="offset" />
          </mxGeometry>
        </mxCell>
        <mxCell id="cYfbSXkqEOTIwd2G9jif-52" value="判断币种" style="rhombus;whiteSpace=wrap;html=1;rounded=1;" vertex="1" parent="1">
          <mxGeometry x="-170" y="340" width="80" height="80" as="geometry" />
        </mxCell>
        <mxCell id="cYfbSXkqEOTIwd2G9jif-53" value="B2B占座" style="whiteSpace=wrap;html=1;rounded=1;" vertex="1" parent="1">
          <mxGeometry x="-310" y="500" width="120" height="60" as="geometry" />
        </mxCell>
        <mxCell id="cYfbSXkqEOTIwd2G9jif-54" value="API占座" style="whiteSpace=wrap;html=1;rounded=1;" vertex="1" parent="1">
          <mxGeometry x="-80" y="500" width="120" height="60" as="geometry" />
        </mxCell>
        <mxCell id="cYfbSXkqEOTIwd2G9jif-58" style="edgeStyle=orthogonalEdgeStyle;rounded=0;orthogonalLoop=1;jettySize=auto;html=1;fillColor=#f8cecc;strokeColor=#b85450;" edge="1" parent="1" source="cYfbSXkqEOTIwd2G9jif-53" target="cYfbSXkqEOTIwd2G9jif-6">
          <mxGeometry relative="1" as="geometry">
            <mxPoint x="-130" y="670" as="targetPoint" />
          </mxGeometry>
        </mxCell>
        <mxCell id="cYfbSXkqEOTIwd2G9jif-60" style="edgeStyle=orthogonalEdgeStyle;rounded=0;orthogonalLoop=1;jettySize=auto;html=1;entryX=0.675;entryY=0.05;entryDx=0;entryDy=0;entryPerimeter=0;" edge="1" parent="1" source="cYfbSXkqEOTIwd2G9jif-54" target="cYfbSXkqEOTIwd2G9jif-6">
          <mxGeometry relative="1" as="geometry" />
        </mxCell>
        <mxCell id="cYfbSXkqEOTIwd2G9jif-73" value="" style="edgeStyle=orthogonalEdgeStyle;rounded=0;orthogonalLoop=1;jettySize=auto;html=1;" edge="1" parent="1" source="cYfbSXkqEOTIwd2G9jif-61" target="cYfbSXkqEOTIwd2G9jif-72">
          <mxGeometry relative="1" as="geometry" />
        </mxCell>
        <mxCell id="cYfbSXkqEOTIwd2G9jif-61" value="api 刷低舱" style="whiteSpace=wrap;html=1;rounded=1;" vertex="1" parent="1">
          <mxGeometry x="560" y="620" width="120" height="60" as="geometry" />
        </mxCell>
        <mxCell id="cYfbSXkqEOTIwd2G9jif-62" value="" style="edgeStyle=orthogonalEdgeStyle;rounded=0;orthogonalLoop=1;jettySize=auto;html=1;fillColor=#f8cecc;strokeColor=#b85450;" edge="1" parent="1" source="cYfbSXkqEOTIwd2G9jif-66" target="cYfbSXkqEOTIwd2G9jif-67">
          <mxGeometry relative="1" as="geometry" />
        </mxCell>
        <mxCell id="cYfbSXkqEOTIwd2G9jif-63" value="HKD/MYR" style="edgeLabel;html=1;align=center;verticalAlign=middle;resizable=0;points=[];" vertex="1" connectable="0" parent="cYfbSXkqEOTIwd2G9jif-62">
          <mxGeometry x="0.16" y="-1" relative="1" as="geometry">
            <mxPoint as="offset" />
          </mxGeometry>
        </mxCell>
        <mxCell id="cYfbSXkqEOTIwd2G9jif-64" value="" style="edgeStyle=orthogonalEdgeStyle;rounded=0;orthogonalLoop=1;jettySize=auto;html=1;" edge="1" parent="1" source="cYfbSXkqEOTIwd2G9jif-66" target="cYfbSXkqEOTIwd2G9jif-68">
          <mxGeometry relative="1" as="geometry" />
        </mxCell>
        <mxCell id="cYfbSXkqEOTIwd2G9jif-65" value="其他币种" style="edgeLabel;html=1;align=center;verticalAlign=middle;resizable=0;points=[];" vertex="1" connectable="0" parent="cYfbSXkqEOTIwd2G9jif-64">
          <mxGeometry x="0.2182" y="1" relative="1" as="geometry">
            <mxPoint as="offset" />
          </mxGeometry>
        </mxCell>
        <mxCell id="cYfbSXkqEOTIwd2G9jif-66" value="判断币种" style="rhombus;whiteSpace=wrap;html=1;rounded=1;" vertex="1" parent="1">
          <mxGeometry x="580" y="280" width="80" height="80" as="geometry" />
        </mxCell>
        <mxCell id="cYfbSXkqEOTIwd2G9jif-67" value="B2B占座" style="whiteSpace=wrap;html=1;rounded=1;" vertex="1" parent="1">
          <mxGeometry x="450" y="440" width="120" height="60" as="geometry" />
        </mxCell>
        <mxCell id="cYfbSXkqEOTIwd2G9jif-68" value="API占座" style="whiteSpace=wrap;html=1;rounded=1;" vertex="1" parent="1">
          <mxGeometry x="670" y="440" width="120" height="60" as="geometry" />
        </mxCell>
        <mxCell id="cYfbSXkqEOTIwd2G9jif-69" style="edgeStyle=orthogonalEdgeStyle;rounded=0;orthogonalLoop=1;jettySize=auto;html=1;entryX=0.408;entryY=-0.017;entryDx=0;entryDy=0;entryPerimeter=0;fillColor=#f8cecc;strokeColor=#b85450;" edge="1" parent="1" source="cYfbSXkqEOTIwd2G9jif-67" target="cYfbSXkqEOTIwd2G9jif-61">
          <mxGeometry relative="1" as="geometry">
            <mxPoint x="620" y="610" as="targetPoint" />
          </mxGeometry>
        </mxCell>
        <mxCell id="cYfbSXkqEOTIwd2G9jif-70" style="edgeStyle=orthogonalEdgeStyle;rounded=0;orthogonalLoop=1;jettySize=auto;html=1;entryX=0.675;entryY=0.05;entryDx=0;entryDy=0;entryPerimeter=0;" edge="1" parent="1" source="cYfbSXkqEOTIwd2G9jif-68" target="cYfbSXkqEOTIwd2G9jif-61">
          <mxGeometry relative="1" as="geometry" />
        </mxCell>
        <mxCell id="cYfbSXkqEOTIwd2G9jif-72" value="刷舱成功使用&lt;div&gt;任务中账号占座&lt;/div&gt;" style="whiteSpace=wrap;html=1;rounded=1;" vertex="1" parent="1">
          <mxGeometry x="560" y="760" width="120" height="60" as="geometry" />
        </mxCell>
        <mxCell id="cYfbSXkqEOTIwd2G9jif-74" value="" style="edgeStyle=orthogonalEdgeStyle;rounded=0;orthogonalLoop=1;jettySize=auto;html=1;" edge="1" parent="1" source="cYfbSXkqEOTIwd2G9jif-75" target="cYfbSXkqEOTIwd2G9jif-80">
          <mxGeometry relative="1" as="geometry" />
        </mxCell>
        <mxCell id="cYfbSXkqEOTIwd2G9jif-75" value="UO&lt;div&gt;生单占座&lt;/div&gt;" style="rounded=1;whiteSpace=wrap;html=1;" vertex="1" parent="1">
          <mxGeometry x="-120" y="1340" width="120" height="60" as="geometry" />
        </mxCell>
        <mxCell id="cYfbSXkqEOTIwd2G9jif-76" value="" style="edgeStyle=orthogonalEdgeStyle;rounded=0;orthogonalLoop=1;jettySize=auto;html=1;" edge="1" parent="1" source="cYfbSXkqEOTIwd2G9jif-80" target="cYfbSXkqEOTIwd2G9jif-82">
          <mxGeometry relative="1" as="geometry" />
        </mxCell>
        <mxCell id="cYfbSXkqEOTIwd2G9jif-77" value="滞留" style="edgeLabel;html=1;align=center;verticalAlign=middle;resizable=0;points=[];" vertex="1" connectable="0" parent="cYfbSXkqEOTIwd2G9jif-76">
          <mxGeometry x="-0.4375" relative="1" as="geometry">
            <mxPoint as="offset" />
          </mxGeometry>
        </mxCell>
        <mxCell id="cYfbSXkqEOTIwd2G9jif-78" style="edgeStyle=orthogonalEdgeStyle;rounded=0;orthogonalLoop=1;jettySize=auto;html=1;entryX=0.5;entryY=0;entryDx=0;entryDy=0;" edge="1" parent="1" source="cYfbSXkqEOTIwd2G9jif-80" target="cYfbSXkqEOTIwd2G9jif-112">
          <mxGeometry relative="1" as="geometry" />
        </mxCell>
        <mxCell id="cYfbSXkqEOTIwd2G9jif-79" value="非滞留" style="edgeLabel;html=1;align=center;verticalAlign=middle;resizable=0;points=[];" vertex="1" connectable="0" parent="cYfbSXkqEOTIwd2G9jif-78">
          <mxGeometry x="0.2125" y="-2" relative="1" as="geometry">
            <mxPoint as="offset" />
          </mxGeometry>
        </mxCell>
        <mxCell id="cYfbSXkqEOTIwd2G9jif-80" value="滞留/非滞留" style="rhombus;whiteSpace=wrap;html=1;rounded=1;" vertex="1" parent="1">
          <mxGeometry x="-100" y="1470" width="80" height="80" as="geometry" />
        </mxCell>
        <mxCell id="cYfbSXkqEOTIwd2G9jif-81" value="发自动支付任务" style="whiteSpace=wrap;html=1;rounded=1;" vertex="1" parent="1">
          <mxGeometry x="-290" y="1880" width="120" height="60" as="geometry" />
        </mxCell>
        <mxCell id="cYfbSXkqEOTIwd2G9jif-82" value="发B2B占座" style="whiteSpace=wrap;html=1;rounded=1;" vertex="1" parent="1">
          <mxGeometry x="-10" y="1600" width="120" height="60" as="geometry" />
        </mxCell>
        <mxCell id="cYfbSXkqEOTIwd2G9jif-83" value="" style="edgeStyle=orthogonalEdgeStyle;rounded=0;orthogonalLoop=1;jettySize=auto;html=1;" edge="1" parent="1" source="cYfbSXkqEOTIwd2G9jif-84" target="cYfbSXkqEOTIwd2G9jif-86">
          <mxGeometry relative="1" as="geometry" />
        </mxCell>
        <mxCell id="cYfbSXkqEOTIwd2G9jif-84" value="延续" style="rounded=1;whiteSpace=wrap;html=1;" vertex="1" parent="1">
          <mxGeometry x="190" y="1340" width="120" height="60" as="geometry" />
        </mxCell>
        <mxCell id="cYfbSXkqEOTIwd2G9jif-85" value="" style="edgeStyle=orthogonalEdgeStyle;rounded=0;orthogonalLoop=1;jettySize=auto;html=1;" edge="1" parent="1" source="cYfbSXkqEOTIwd2G9jif-86" target="cYfbSXkqEOTIwd2G9jif-106">
          <mxGeometry relative="1" as="geometry" />
        </mxCell>
        <mxCell id="cYfbSXkqEOTIwd2G9jif-86" value="发B2B占座" style="rounded=1;whiteSpace=wrap;html=1;" vertex="1" parent="1">
          <mxGeometry x="190" y="1480" width="120" height="60" as="geometry" />
        </mxCell>
        <mxCell id="cYfbSXkqEOTIwd2G9jif-87" value="" style="edgeStyle=orthogonalEdgeStyle;rounded=0;orthogonalLoop=1;jettySize=auto;html=1;" edge="1" parent="1" source="cYfbSXkqEOTIwd2G9jif-88" target="cYfbSXkqEOTIwd2G9jif-123">
          <mxGeometry relative="1" as="geometry">
            <mxPoint x="470" y="1480" as="targetPoint" />
          </mxGeometry>
        </mxCell>
        <mxCell id="cYfbSXkqEOTIwd2G9jif-88" value="低舱" style="rounded=1;whiteSpace=wrap;html=1;" vertex="1" parent="1">
          <mxGeometry x="460" y="1340" width="120" height="60" as="geometry" />
        </mxCell>
        <mxCell id="cYfbSXkqEOTIwd2G9jif-89" value="" style="edgeStyle=orthogonalEdgeStyle;rounded=0;orthogonalLoop=1;jettySize=auto;html=1;" edge="1" parent="1" source="cYfbSXkqEOTIwd2G9jif-90" target="cYfbSXkqEOTIwd2G9jif-95">
          <mxGeometry relative="1" as="geometry" />
        </mxCell>
        <mxCell id="cYfbSXkqEOTIwd2G9jif-90" value="占座后支付" style="rounded=1;whiteSpace=wrap;html=1;" vertex="1" parent="1">
          <mxGeometry x="810" y="1370" width="120" height="60" as="geometry" />
        </mxCell>
        <mxCell id="cYfbSXkqEOTIwd2G9jif-91" value="" style="edgeStyle=orthogonalEdgeStyle;rounded=0;orthogonalLoop=1;jettySize=auto;html=1;" edge="1" parent="1" source="cYfbSXkqEOTIwd2G9jif-95" target="cYfbSXkqEOTIwd2G9jif-96">
          <mxGeometry relative="1" as="geometry" />
        </mxCell>
        <mxCell id="cYfbSXkqEOTIwd2G9jif-92" value="API" style="edgeLabel;html=1;align=center;verticalAlign=middle;resizable=0;points=[];" vertex="1" connectable="0" parent="cYfbSXkqEOTIwd2G9jif-91">
          <mxGeometry x="-0.2444" y="1" relative="1" as="geometry">
            <mxPoint x="24" y="-1" as="offset" />
          </mxGeometry>
        </mxCell>
        <mxCell id="cYfbSXkqEOTIwd2G9jif-93" value="" style="edgeStyle=orthogonalEdgeStyle;rounded=0;orthogonalLoop=1;jettySize=auto;html=1;" edge="1" parent="1" source="cYfbSXkqEOTIwd2G9jif-95" target="cYfbSXkqEOTIwd2G9jif-101">
          <mxGeometry relative="1" as="geometry" />
        </mxCell>
        <mxCell id="cYfbSXkqEOTIwd2G9jif-94" value="B2B" style="edgeLabel;html=1;align=center;verticalAlign=middle;resizable=0;points=[];" vertex="1" connectable="0" parent="cYfbSXkqEOTIwd2G9jif-93">
          <mxGeometry x="-0.4125" relative="1" as="geometry">
            <mxPoint as="offset" />
          </mxGeometry>
        </mxCell>
        <mxCell id="cYfbSXkqEOTIwd2G9jif-95" value="根据账号判断" style="rhombus;whiteSpace=wrap;html=1;rounded=1;" vertex="1" parent="1">
          <mxGeometry x="830" y="1500" width="80" height="80" as="geometry" />
        </mxCell>
        <mxCell id="cYfbSXkqEOTIwd2G9jif-96" value="发起API额度支付" style="whiteSpace=wrap;html=1;rounded=1;" vertex="1" parent="1">
          <mxGeometry x="700" y="1640" width="120" height="60" as="geometry" />
        </mxCell>
        <mxCell id="cYfbSXkqEOTIwd2G9jif-97" value="" style="edgeStyle=orthogonalEdgeStyle;rounded=0;orthogonalLoop=1;jettySize=auto;html=1;fillColor=#f8cecc;strokeColor=#b85450;" edge="1" parent="1" source="cYfbSXkqEOTIwd2G9jif-101" target="cYfbSXkqEOTIwd2G9jif-102">
          <mxGeometry relative="1" as="geometry" />
        </mxCell>
        <mxCell id="cYfbSXkqEOTIwd2G9jif-98" value="HKD/MYR" style="edgeLabel;html=1;align=center;verticalAlign=middle;resizable=0;points=[];" vertex="1" connectable="0" parent="cYfbSXkqEOTIwd2G9jif-97">
          <mxGeometry x="0.16" y="-1" relative="1" as="geometry">
            <mxPoint as="offset" />
          </mxGeometry>
        </mxCell>
        <mxCell id="cYfbSXkqEOTIwd2G9jif-99" value="" style="edgeStyle=orthogonalEdgeStyle;rounded=0;orthogonalLoop=1;jettySize=auto;html=1;" edge="1" parent="1" source="cYfbSXkqEOTIwd2G9jif-101" target="cYfbSXkqEOTIwd2G9jif-103">
          <mxGeometry relative="1" as="geometry" />
        </mxCell>
        <mxCell id="cYfbSXkqEOTIwd2G9jif-100" value="其他币种" style="edgeLabel;html=1;align=center;verticalAlign=middle;resizable=0;points=[];" vertex="1" connectable="0" parent="cYfbSXkqEOTIwd2G9jif-99">
          <mxGeometry x="0.2182" y="1" relative="1" as="geometry">
            <mxPoint as="offset" />
          </mxGeometry>
        </mxCell>
        <mxCell id="cYfbSXkqEOTIwd2G9jif-101" value="判断币种" style="rhombus;whiteSpace=wrap;html=1;rounded=1;" vertex="1" parent="1">
          <mxGeometry x="940" y="1630" width="80" height="80" as="geometry" />
        </mxCell>
        <mxCell id="cYfbSXkqEOTIwd2G9jif-102" value="虚拟卡支付" style="whiteSpace=wrap;html=1;rounded=1;fillColor=#f8cecc;strokeColor=#b85450;" vertex="1" parent="1">
          <mxGeometry x="810" y="1800" width="120" height="60" as="geometry" />
        </mxCell>
        <mxCell id="cYfbSXkqEOTIwd2G9jif-103" value="B2B额度支付" style="whiteSpace=wrap;html=1;rounded=1;" vertex="1" parent="1">
          <mxGeometry x="1050" y="1800" width="120" height="60" as="geometry" />
        </mxCell>
        <mxCell id="cYfbSXkqEOTIwd2G9jif-104" value="" style="edgeStyle=orthogonalEdgeStyle;rounded=0;orthogonalLoop=1;jettySize=auto;html=1;" edge="1" parent="1" source="cYfbSXkqEOTIwd2G9jif-106" target="cYfbSXkqEOTIwd2G9jif-107">
          <mxGeometry relative="1" as="geometry" />
        </mxCell>
        <mxCell id="cYfbSXkqEOTIwd2G9jif-105" value="延续失败" style="edgeLabel;html=1;align=center;verticalAlign=middle;resizable=0;points=[];" vertex="1" connectable="0" parent="cYfbSXkqEOTIwd2G9jif-104">
          <mxGeometry x="-0.2727" y="1" relative="1" as="geometry">
            <mxPoint as="offset" />
          </mxGeometry>
        </mxCell>
        <mxCell id="cYfbSXkqEOTIwd2G9jif-106" value="延续结果" style="rhombus;whiteSpace=wrap;html=1;rounded=1;" vertex="1" parent="1">
          <mxGeometry x="210" y="1610" width="80" height="80" as="geometry" />
        </mxCell>
        <mxCell id="cYfbSXkqEOTIwd2G9jif-107" value="发起自动支付" style="whiteSpace=wrap;html=1;rounded=1;" vertex="1" parent="1">
          <mxGeometry x="190" y="1745" width="120" height="60" as="geometry" />
        </mxCell>
        <mxCell id="cYfbSXkqEOTIwd2G9jif-108" value="" style="edgeStyle=orthogonalEdgeStyle;rounded=0;orthogonalLoop=1;jettySize=auto;html=1;fillColor=#f8cecc;strokeColor=#b85450;" edge="1" parent="1" source="cYfbSXkqEOTIwd2G9jif-112" target="cYfbSXkqEOTIwd2G9jif-113">
          <mxGeometry relative="1" as="geometry" />
        </mxCell>
        <mxCell id="cYfbSXkqEOTIwd2G9jif-109" value="HKD/MYR" style="edgeLabel;html=1;align=center;verticalAlign=middle;resizable=0;points=[];" vertex="1" connectable="0" parent="cYfbSXkqEOTIwd2G9jif-108">
          <mxGeometry x="0.16" y="-1" relative="1" as="geometry">
            <mxPoint as="offset" />
          </mxGeometry>
        </mxCell>
        <mxCell id="cYfbSXkqEOTIwd2G9jif-110" value="" style="edgeStyle=orthogonalEdgeStyle;rounded=0;orthogonalLoop=1;jettySize=auto;html=1;" edge="1" parent="1" source="cYfbSXkqEOTIwd2G9jif-112" target="cYfbSXkqEOTIwd2G9jif-114">
          <mxGeometry relative="1" as="geometry" />
        </mxCell>
        <mxCell id="cYfbSXkqEOTIwd2G9jif-111" value="其他币种" style="edgeLabel;html=1;align=center;verticalAlign=middle;resizable=0;points=[];" vertex="1" connectable="0" parent="cYfbSXkqEOTIwd2G9jif-110">
          <mxGeometry x="0.2182" y="1" relative="1" as="geometry">
            <mxPoint as="offset" />
          </mxGeometry>
        </mxCell>
        <mxCell id="cYfbSXkqEOTIwd2G9jif-112" value="判断币种" style="rhombus;whiteSpace=wrap;html=1;rounded=1;" vertex="1" parent="1">
          <mxGeometry x="-270" y="1540" width="80" height="80" as="geometry" />
        </mxCell>
        <mxCell id="cYfbSXkqEOTIwd2G9jif-113" value="B2B占座" style="whiteSpace=wrap;html=1;rounded=1;" vertex="1" parent="1">
          <mxGeometry x="-410" y="1700" width="120" height="60" as="geometry" />
        </mxCell>
        <mxCell id="cYfbSXkqEOTIwd2G9jif-114" value="B2B账号占座" style="whiteSpace=wrap;html=1;rounded=1;" vertex="1" parent="1">
          <mxGeometry x="-180" y="1700" width="120" height="60" as="geometry" />
        </mxCell>
        <mxCell id="cYfbSXkqEOTIwd2G9jif-115" style="edgeStyle=orthogonalEdgeStyle;rounded=0;orthogonalLoop=1;jettySize=auto;html=1;fillColor=#f8cecc;strokeColor=#b85450;" edge="1" parent="1" source="cYfbSXkqEOTIwd2G9jif-113" target="cYfbSXkqEOTIwd2G9jif-81">
          <mxGeometry relative="1" as="geometry">
            <mxPoint x="-230" y="1870" as="targetPoint" />
          </mxGeometry>
        </mxCell>
        <mxCell id="cYfbSXkqEOTIwd2G9jif-116" style="edgeStyle=orthogonalEdgeStyle;rounded=0;orthogonalLoop=1;jettySize=auto;html=1;entryX=0.675;entryY=0.05;entryDx=0;entryDy=0;entryPerimeter=0;" edge="1" parent="1" source="cYfbSXkqEOTIwd2G9jif-114" target="cYfbSXkqEOTIwd2G9jif-81">
          <mxGeometry relative="1" as="geometry" />
        </mxCell>
        <mxCell id="cYfbSXkqEOTIwd2G9jif-117" value="" style="edgeStyle=orthogonalEdgeStyle;rounded=0;orthogonalLoop=1;jettySize=auto;html=1;" edge="1" parent="1" source="cYfbSXkqEOTIwd2G9jif-118" target="cYfbSXkqEOTIwd2G9jif-128">
          <mxGeometry relative="1" as="geometry" />
        </mxCell>
        <mxCell id="cYfbSXkqEOTIwd2G9jif-118" value="api 刷低舱" style="whiteSpace=wrap;html=1;rounded=1;" vertex="1" parent="1">
          <mxGeometry x="460" y="1820" width="120" height="60" as="geometry" />
        </mxCell>
        <mxCell id="cYfbSXkqEOTIwd2G9jif-119" value="" style="edgeStyle=orthogonalEdgeStyle;rounded=0;orthogonalLoop=1;jettySize=auto;html=1;fillColor=#f8cecc;strokeColor=#b85450;" edge="1" parent="1" source="cYfbSXkqEOTIwd2G9jif-123" target="cYfbSXkqEOTIwd2G9jif-124">
          <mxGeometry relative="1" as="geometry" />
        </mxCell>
        <mxCell id="cYfbSXkqEOTIwd2G9jif-120" value="HKD/MYR" style="edgeLabel;html=1;align=center;verticalAlign=middle;resizable=0;points=[];" vertex="1" connectable="0" parent="cYfbSXkqEOTIwd2G9jif-119">
          <mxGeometry x="0.16" y="-1" relative="1" as="geometry">
            <mxPoint as="offset" />
          </mxGeometry>
        </mxCell>
        <mxCell id="cYfbSXkqEOTIwd2G9jif-121" value="" style="edgeStyle=orthogonalEdgeStyle;rounded=0;orthogonalLoop=1;jettySize=auto;html=1;" edge="1" parent="1" source="cYfbSXkqEOTIwd2G9jif-123" target="cYfbSXkqEOTIwd2G9jif-125">
          <mxGeometry relative="1" as="geometry" />
        </mxCell>
        <mxCell id="cYfbSXkqEOTIwd2G9jif-122" value="其他币种" style="edgeLabel;html=1;align=center;verticalAlign=middle;resizable=0;points=[];" vertex="1" connectable="0" parent="cYfbSXkqEOTIwd2G9jif-121">
          <mxGeometry x="0.2182" y="1" relative="1" as="geometry">
            <mxPoint as="offset" />
          </mxGeometry>
        </mxCell>
        <mxCell id="cYfbSXkqEOTIwd2G9jif-123" value="判断币种" style="rhombus;whiteSpace=wrap;html=1;rounded=1;" vertex="1" parent="1">
          <mxGeometry x="480" y="1480" width="80" height="80" as="geometry" />
        </mxCell>
        <mxCell id="cYfbSXkqEOTIwd2G9jif-124" value="B2B占座" style="whiteSpace=wrap;html=1;rounded=1;" vertex="1" parent="1">
          <mxGeometry x="350" y="1640" width="120" height="60" as="geometry" />
        </mxCell>
        <mxCell id="cYfbSXkqEOTIwd2G9jif-125" value="API占座" style="whiteSpace=wrap;html=1;rounded=1;" vertex="1" parent="1">
          <mxGeometry x="570" y="1640" width="120" height="60" as="geometry" />
        </mxCell>
        <mxCell id="cYfbSXkqEOTIwd2G9jif-126" style="edgeStyle=orthogonalEdgeStyle;rounded=0;orthogonalLoop=1;jettySize=auto;html=1;entryX=0.408;entryY=-0.017;entryDx=0;entryDy=0;entryPerimeter=0;fillColor=#f8cecc;strokeColor=#b85450;" edge="1" parent="1" source="cYfbSXkqEOTIwd2G9jif-124" target="cYfbSXkqEOTIwd2G9jif-118">
          <mxGeometry relative="1" as="geometry">
            <mxPoint x="520" y="1810" as="targetPoint" />
          </mxGeometry>
        </mxCell>
        <mxCell id="cYfbSXkqEOTIwd2G9jif-127" style="edgeStyle=orthogonalEdgeStyle;rounded=0;orthogonalLoop=1;jettySize=auto;html=1;entryX=0.675;entryY=0.05;entryDx=0;entryDy=0;entryPerimeter=0;" edge="1" parent="1" source="cYfbSXkqEOTIwd2G9jif-125" target="cYfbSXkqEOTIwd2G9jif-118">
          <mxGeometry relative="1" as="geometry" />
        </mxCell>
        <mxCell id="cYfbSXkqEOTIwd2G9jif-128" value="刷舱成功使用&lt;div&gt;任务中账号占座&lt;/div&gt;" style="whiteSpace=wrap;html=1;rounded=1;" vertex="1" parent="1">
          <mxGeometry x="460" y="1960" width="120" height="60" as="geometry" />
        </mxCell>
      </root>
    </mxGraphModel>
  </diagram>
</mxfile>
